<?xml version='1.0' encoding='utf-8'?>
<svg xmlns="http://www.w3.org/2000/svg" version="1.1" width="600px" height="976px" viewBox="0 0 600 976"> <g id="layer1"> <g style="fill:rgb(41,172,168); fill-opacity:1.0; stroke-linejoin: miter"> <path d="M269.95566,384.66208Q238.05887,384.97305,214.90732,407.277Q192.25136,430.41748,191.81987,462.49527Q192.22887,494.69843,214.38599,517.5622Q237.18343,540.09576,269.5472,540.6985Q301.4448,540.45953,324.65085,518.2009Q347.36145,495.1004,347.85593,463.02298Q347.62314,430.93402,325.18106,407.6887Q302.33466,385.1971,269.96625,384.66208"/> </g> <g style="fill:rgb(0,0,0); fill-opacity:0.09411765; stroke-linejoin: miter"> <path d="M269.9419,393.40884Q241.54886,393.72736,221.11092,413.4441Q200.9719,433.90018,200.56677,462.60605Q200.89558,490.99963,220.62097,511.42914Q240.71263,531.3455,269.5204,531.9517Q297.81003,531.82086,318.6051,511.8758Q338.73175,491.2599,339.109,462.96872Q338.96472,434.67938,319.01257,413.8917Q298.76703,393.9881,270.371,393.41733"/> </g> <g style="fill:rgb(0,0,0); fill-opacity:0.1764706; stroke-linejoin: miter"> <path d="M272.0348,439.2507L271.9734,442.15555L271.9734,442.15555Q271.94348,442.05685,271.93378,441.9384L271.96866,440.07083Q271.97223,439.9788,271.995,439.90164Q272.0066,439.86807,272.01984,439.8367L272.0224,439.8367L272.0348,439.2507 Z M261.98087,442.26724Q261.98038,442.26724,261.97992,442.26724Q261.97943,442.26724,261.979,442.26724 Z M271.97324,442.16312L271.96713,442.45218L271.97324,442.16312 Z M256.24896,455.9976L256.25018,463.32962L256.25018,463.32962L256.24896,455.9976 Z M324.92798,469.74808L297.37054,469.74814L324.87122,469.74808 Z M236.05107,485.76462Q236.0535,485.76462,236.05591,485.76468L236.05107,485.76468Q235.99266,485.76468,235.93254,485.7869L235.93248,485.7869Q235.99265,485.76462,236.05107,485.76462 Z M216.243,485.50644L216.24562,485.86472L216.24562,485.86472L216.243,485.86465L216.243,485.50644 Z M215.60059,471.34305L215.60005,486.168L215.60057,471.34317L211.2653,471.34744L215.60059,471.34305 Z M222.17418,471.33646L217.1508,471.34158L217.15184,486.19058L217.15079,471.34152L217.15079,471.34152L222.17418,471.33646 Z M245.4229,455.27103L243.5712,486.88065L243.5712,486.88065L243.5712,486.88065L243.5712,486.8807L243.5712,486.8807L242.35997,486.88895L242.35997,486.88895L242.19516,486.89005L242.19516,486.89005L242.19516,486.89005L242.19516,486.89005L242.19516,486.89005L242.19516,486.89005L242.19342,486.1122L242.19516,486.89005L242.19516,486.89005L242.35997,486.88895L242.35997,486.88895L243.5712,486.88065L243.5712,486.88065L245.4229,455.27103 Z M232.97127,455.2668L234.32562,486.94333L234.32562,486.94333L235.68184,486.9341L235.68184,486.9341L235.67993,486.12723L235.68184,486.9341L235.68184,486.9341L235.68184,486.9341L235.68184,486.9341L235.68184,486.93417L234.32562,486.9434L234.32562,486.9434L234.32562,486.94333L234.32562,486.94333L234.32562,486.94333L234.32562,486.94333L232.97127,455.2668 Z M256.25357,483.9788L256.2547,490.9769L256.25357,483.9788 Z M296.6563,468.3654Q296.08496,468.41098,295.97113,468.96463L295.96545,473.17178L295.96545,473.17178L292.5227,473.17166L292.50745,473.17166Q291.86108,473.2488,291.81616,473.85623L291.81616,491.64688Q291.87994,492.31876,292.55127,492.34763L329.76062,492.34763Q329.7754,492.34903,329.7912,492.34903Q329.9104,492.34903,330.08923,492.26877Q330.4566,492.0416,330.45947,491.66684L330.45953,473.87613Q330.42603,473.27103,329.80676,473.17276L326.3061,473.17264L326.3061,473.17264L326.31067,469.0635Q326.25635,468.4448,325.65607,468.36642L296.67755,468.3654 Z M215.58134,453.4147Q215.14534,453.454,215.09026,453.8854L215.08983,462.9858L215.08983,462.9858L212.46608,462.98575L212.45616,462.98575Q212.03764,463.0242,211.96758,463.423L211.96461,467.51443Q212.0048,467.96805,212.46101,468.00858L214.18199,468.00845L214.18199,468.00845L214.17743,469.95383L214.17743,469.95383L210.59517,469.95377L210.57393,469.95377Q209.94273,470.0142,209.88261,470.64127L209.88258,491.6467Q209.90987,492.2839,210.58522,492.3596L222.9203,492.35886Q223.50981,492.29697,223.58064,491.66757L223.58064,470.66214Q223.57872,470.43228,223.47334,470.27505Q223.25597,469.9634,222.9027,469.9539L218.75024,469.95383L218.75024,469.95383L218.74966,468.0082L218.74966,468.0082L220.49211,468.0081Q220.9168,467.95767,220.96211,467.51956L220.96126,463.44778Q220.93373,463.17093,220.69801,463.0414Q220.6067,462.99112,220.47954,462.98587L217.83437,462.9858L217.83437,462.9858L217.83437,453.91495Q217.8362,453.8594,217.82045,453.7897Q217.72896,453.48428,217.42622,453.42178L215.58186,453.4147 Z M231.86595,453.2502Q230.94191,453.33182,230.90198,454.2089L232.88255,487.7368Q232.88702,487.84543,232.923,487.93314L232.92084,487.93314L232.93962,491.6722Q233.00902,492.31198,233.63846,492.3596L244.41118,492.28537Q245.02187,492.18478,245.05779,491.58652L245.02737,487.50082Q245.01578,487.41153,244.98854,487.3337L244.98625,487.3337L247.44002,454.38577Q247.45859,454.2059,247.42339,454.05862Q247.2451,453.4247,246.56064,453.35904L231.90433,453.25058L231.86595,453.2502 Z M261.363,437.6686Q260.79007,437.70596,260.66733,438.25076L260.57376,442.90848Q260.60684,443.5627,261.25522,443.63516L263.3027,443.67313L263.3027,443.67313L263.29913,449.2222L263.29913,449.2222L257.81577,449.22208L257.8117,449.22208Q257.21802,449.27243,257.12277,449.85538L257.12067,454.56607L255.5576,454.56607Q254.9346,454.62955,254.86678,455.23074L254.86627,491.47427Q254.77994,492.2263,255.55821,492.3596L277.62292,492.35947Q278.3277,492.23465,278.3037,491.60483L278.3037,455.28763Q278.30475,455.05197,278.2002,454.89334Q277.95422,454.56516,277.636,454.56516Q277.61896,454.56516,277.60175,454.56607L275.98718,454.56607L275.98724,449.89017Q275.9809,449.67276,275.84106,449.48776Q275.63538,449.2371,275.3192,449.22244L269.15494,449.22232L269.15494,449.22232L269.15485,443.78165L269.15485,443.78165L272.685,443.84714Q273.2755,443.7758,273.34454,443.17087L273.35675,442.49545L273.35675,442.49545L283.8167,442.68912Q284.40808,442.61172,284.47278,442.01303L284.4948,440.01077Q284.40155,439.59976,283.98462,439.47293Q283.91327,439.4537,283.81488,439.45206L273.4154,439.2579L273.4154,439.2579L273.4287,438.52505Q273.39105,438.1271,273.0227,437.94174Q272.91022,437.88797,272.75415,437.8812L261.3748,437.6688L261.363,437.6686 Z"/> </g> <g> <g style="fill:rgb(255,253,169); fill-opacity:1.0; stroke-linejoin: miter"> <path d="M283.27026,437.80463L273.3579,437.68127L273.15637,439.40866L283.27264,439.26883L283.27026,437.80753"/> </g> <g style="fill:rgb(255,253,169); fill-opacity:1.0; stroke-linejoin: miter"> <path d="M268.21866,440.7268L263.6787,441.3085L263.6787,447.296L263.68115,447.3052L268.14615,447.1201L268.2187,440.7345"/> </g> <g style="fill:rgb(0,0,0); fill-opacity:1.0; stroke-linejoin: miter"> <path d="M276.58783,453.6149L276.58783,488.60336L267.5487,488.64297L255.92155,488.64297L255.9158,453.6638L276.5763,453.6149 M255.22444,452.23224Q254.60144,452.29572,254.53362,452.89688L254.53311,489.14038Q254.44678,489.89243,255.22505,490.0257L277.28973,490.0256Q277.9945,489.90076,277.97052,489.2709L277.97052,452.95377Q277.97156,452.71814,277.867,452.55954Q277.6079,452.21375,277.26855,452.23224L255.25023,452.23224"/> </g> <g style="fill:rgb(0,0,0); fill-opacity:1.0; stroke-linejoin: miter"> <path d="M274.27173,448.27097L274.26007,452.20584L265.5266,452.20584L258.1699,452.20114L258.1699,448.2752L274.26144,448.27097 M257.47855,446.88828Q256.88486,446.9386,256.7896,447.5215L256.78723,452.90106Q256.7923,453.139,256.9293,453.3171Q257.13144,453.5674,257.43958,453.58743L262.6347,453.5885L274.97925,453.58832Q275.1094,453.59015,275.27072,453.51648Q275.62402,453.32718,275.654,452.9229L275.65405,447.55637Q275.6477,447.33893,275.50787,447.15393Q275.30222,446.90323,274.98602,446.88864L257.4826,446.88828"/> </g> <g style="fill:rgb(0,0,0); fill-opacity:1.0; stroke-linejoin: miter"> <path d="M267.4391,441.83057L267.4391,446.72037L267.4284,446.7214L264.35165,446.7214L264.3483,441.83597L267.43237,441.83057 M263.65698,440.44788Q263.0696,440.50037,262.96973,441.0636L262.96564,447.40427Q263.02216,448.04852,263.66156,448.10406L268.22583,448.09753Q268.78152,447.9783,268.82178,447.4089L268.8217,441.12823Q268.81268,440.89423,268.6859,440.7276Q268.4898,440.47293,268.16898,440.44894L263.6618,440.44788"/> </g> <g style="fill:rgb(0,0,0); fill-opacity:1.0; stroke-linejoin: miter"> <path d="M276.4925,462.37848L276.4925,480.24484L264.81207,480.26227L255.94876,480.2497L255.94876,462.38333L276.4753,462.37848 M255.25743,460.9958Q254.63335,461.0525,254.56615,461.67642L254.56607,480.9549Q254.66528,481.63937,255.29279,481.64496L277.19083,481.64493Q277.41376,481.65237,277.64142,481.47183Q277.8723,481.2559,277.87518,480.95804L277.87518,461.72025Q277.8108,461.03522,277.18732,460.9958L255.2894,460.9958"/> </g> <g style="fill:rgb(0,0,0); fill-opacity:1.0; stroke-linejoin: miter"> <path d="M271.7016,436.91687L271.63397,440.11838L261.66138,439.93222Q261.62393,439.9374,261.63574,439.92L261.70233,436.73016L271.70007,436.91684 M261.02985,435.33475Q260.4569,435.3721,260.33417,435.9169L260.2406,440.57468Q260.27368,441.22888,260.92206,441.30136L272.3518,441.5133Q272.94232,441.44196,273.01138,440.83704L273.09552,436.19125Q273.0579,435.79327,272.6895,435.6079Q272.57703,435.55417,272.42096,435.54736L261.04163,435.33496"/> </g> <g style="fill:rgb(0,0,0); fill-opacity:1.0; stroke-linejoin: miter"> <path d="M282.77887,438.48807L282.77002,438.95993L282.74908,438.9603L273.4621,438.78693L273.46747,438.31595L282.77216,438.48795 M272.80206,436.91888Q272.28873,436.9424,272.12448,437.41934Q272.1017,437.49655,272.09814,437.58856L272.06326,439.45612Q272.11566,440.095,272.755,440.15665L283.48352,440.35532Q284.0749,440.2779,284.1396,439.6792L284.16162,437.67697Q284.06836,437.26593,283.65143,437.13907Q283.58008,437.11987,283.4817,437.11826L272.82407,436.91928"/> </g> <g style="fill:rgb(255,253,169); fill-opacity:1.0; stroke-linejoin: miter"> <path d="M276.58783,481.64493L276.58783,488.60336L267.5487,488.64297L255.92155,488.64297L255.92041,481.64496L255.92041,481.64496L276.58783,481.64493 Z"/> </g> <g style="fill:rgb(255,253,169); fill-opacity:1.0; stroke-linejoin: miter"> <path d="M276.58783,453.6149L276.58783,460.9958L255.917,460.9958L255.9158,453.6638L276.5763,453.6149 Z"/> </g> <g style="fill:rgb(231,255,254); fill-opacity:1.0; stroke-linejoin: miter"> <path d="M276.4925,462.37848L276.4925,480.24484L264.81207,480.26227L255.94876,480.2497L255.94876,462.38333L276.4753,462.37848 Z"/> </g> <g style="fill:rgb(231,255,254); fill-opacity:1.0; stroke-linejoin: miter"> <path d="M274.27173,448.27097L274.26007,452.20584L265.5266,452.20584L258.1699,452.20114L258.1699,448.2752L274.26144,448.27097 Z"/> </g> <g style="fill:rgb(231,255,254); fill-opacity:1.0; stroke-linejoin: miter"> <path d="M261.70233,436.73016L271.70007,436.91684L271.7016,436.91687L271.6892,437.5029L271.68668,437.5029Q271.6734,437.5342,271.66183,437.56778Q271.63907,437.645,271.6355,437.737L271.60062,439.60455Q271.61072,439.72763,271.64258,439.82928L271.64008,439.82928L271.63397,440.11838L261.66138,439.93222Q261.65277,439.9334,261.64676,439.9334Q261.62665,439.9334,261.63574,439.92L261.70233,436.73016 Z"/> </g> </g> <g> <g> <g style="fill:rgb(0,0,0); fill-opacity:1.0; stroke-linejoin: miter"> <path d="M328.7437,472.22043L328.74365,488.62485L303.7738,488.6311L292.86566,488.61322L292.88916,472.22055L328.74,472.2205 M292.17426,470.8378Q291.5279,470.915,291.48297,471.52243L291.48297,489.313Q291.54675,489.98486,292.21808,490.01373L329.42743,490.01376Q329.55347,490.02585,329.75604,489.9349Q330.1234,489.70767,330.12628,489.33298L330.12634,471.5423Q330.09283,470.9372,329.47357,470.8389L292.1895,470.8378"/> </g> <g style="fill:rgb(0,0,0); fill-opacity:1.0; stroke-linejoin: miter"> <path d="M324.5948,467.4142L324.5733,470.41946L308.63,470.41937L297.01453,470.4193L297.03735,467.4143L324.53802,467.41428 M296.32312,466.03156Q295.75177,466.07715,295.63794,466.6308L295.6319,471.11765Q295.7019,471.7642,296.35236,471.80222L325.3825,471.79562Q325.87842,471.69882,325.97253,471.19382L325.97748,466.72968Q325.92316,466.11096,325.32288,466.0326L296.34436,466.03156"/> </g> <g style="fill:rgb(0,0,0); fill-opacity:1.0; stroke-linejoin: miter"> <path d="M322.60236,478.85574L322.60754,482.0781L299.0069,482.17123L299.0091,478.95062L322.56543,478.85593 M298.29706,477.5709Q297.6772,477.63217,297.60876,478.24185L297.62982,482.93076Q297.69446,483.38864,298.13196,483.533Q298.2586,483.56442,298.34723,483.55832L320.40875,483.46948L323.39166,483.45303Q323.75446,483.3995,323.9275,483.07663Q323.9967,482.93997,324.00067,482.77866L323.97974,478.10193Q323.91193,477.62537,323.456,477.49014Q323.3839,477.47067,323.27887,477.47037L298.33087,477.57077"/> </g> </g> <g style="fill:rgb(212,255,169); fill-opacity:1.0; stroke-linejoin: miter"> <path d="M323.27887,477.47037Q323.3839,477.47067,323.456,477.49014Q323.91193,477.62537,323.97974,478.10193L324.00067,482.77866Q323.9967,482.93997,323.9275,483.07663Q323.75446,483.3995,323.39166,483.45303L320.40875,483.46948L298.34723,483.55832Q298.33295,483.5593,298.31763,483.5593Q298.23816,483.55936,298.13196,483.533Q297.69446,483.38864,297.62982,482.93076L297.60876,478.24185Q297.6772,477.63217,298.29706,477.5709L298.33087,477.57077L323.27887,477.47037 Z M292.88916,472.22055L292.86566,488.61322L303.7738,488.6311L328.74365,488.62485L328.7437,472.22043 Z"/> </g> <g style="fill:rgb(244,255,169); fill-opacity:1.0; stroke-linejoin: miter"> <path d="M324.5948,467.4142L324.5733,470.41946L308.63,470.41937L297.01453,470.4193L297.03735,467.4143 Z"/> </g> <g style="fill:rgb(194,255,248); fill-opacity:1.0; stroke-linejoin: miter"> <path d="M322.60236,478.85574L322.60754,482.0781L299.0069,482.17123L299.0069,482.17123L299.0091,478.95062L322.56543,478.85593L322.60236,478.85574 Z"/> </g> </g> <g> <g style="fill:rgb(212,255,169); fill-opacity:1.0; stroke-linejoin: miter"> <path d="M241.32396,483.6854L235.64536,483.74707L235.97221,486.54898L241.49762,486.73013L241.3242,483.68954"/> </g> <g style="fill:rgb(255,253,169); fill-opacity:1.0; stroke-linejoin: miter"> <path d="M243.8592,485.6208L241.55298,485.71243L241.37097,486.7888L235.64076,487.06174L235.2347,485.5134L233.36336,485.85498L232.9759,489.5374L244.22418,489.63388L243.8599,485.6284"/> </g> <g style="fill:rgb(0,0,0); fill-opacity:1.0; stroke-linejoin: miter"> <path d="M243.31935,485.92905L243.33723,488.5664Q243.34213,488.57928,243.30885,488.5752L233.98445,488.63788L233.96655,486.0005L233.97241,485.9924L243.29793,485.92917 M233.26581,484.61444Q232.70604,484.65753,232.58572,485.21002L232.60646,489.33835Q232.67586,489.97806,233.3053,490.0257L244.07802,489.9515Q244.6887,489.8509,244.72462,489.25262L244.69421,485.16696Q244.64134,484.75967,244.26291,484.59097Q244.15465,484.5447,244.00568,484.54166L233.28012,484.61435"/> </g> <g style="fill:rgb(0,0,0); fill-opacity:1.0; stroke-linejoin: miter"> <path d="M245.08974,452.9372L243.2329,484.63458L237.90782,484.80148L234.00374,484.87323L232.6381,452.93298L245.03462,452.93716 M231.53279,450.91638Q230.60875,450.99796,230.56882,451.8751L232.5494,485.40286Q232.57103,485.92847,233.33044,485.96545L243.92313,485.66046Q244.54893,485.59854,244.645,485.1083L247.10686,452.05194Q247.12543,451.87207,247.09023,451.7248Q246.91194,451.09085,246.22748,451.0252L231.57117,450.91675"/> </g> <g style="fill:rgb(0,0,0); fill-opacity:1.0; stroke-linejoin: miter"> <path d="M241.10115,484.17896L241.10269,486.36285L236.18564,486.37418L236.11276,486.37228L236.11476,484.19043L241.0955,484.17896 M241.48058,483.41754L235.72275,483.43085Q235.62599,483.42932,235.52449,483.48895Q235.35799,483.60223,235.34677,483.7934L235.35384,486.77866Q235.40611,487.1143,235.73956,487.1357L241.49744,487.1223Q241.59367,487.12222,241.69374,487.06155Q241.84981,486.9575,241.86696,486.76364L241.86026,483.77835Q241.81152,483.44373,241.48087,483.41754"/> </g> <g style="fill:rgb(231,255,254); fill-opacity:1.0; stroke-linejoin: miter"> <path d="M232.6381,452.93298L245.03462,452.93716L245.08974,452.9372L243.23804,484.54684L243.23804,484.54684L241.862,484.55618L241.862,484.55618L241.86026,483.77835Q241.81152,483.44373,241.48087,483.41754L241.48058,483.41754L235.72275,483.43085Q235.72034,483.43082,235.71791,483.43082Q235.62346,483.43082,235.52449,483.48895Q235.35799,483.60223,235.34677,483.7934L235.34868,484.60034L235.34868,484.60034L233.99246,484.60953L233.99246,484.60953L232.6381,452.93298 Z"/> </g> </g> <g> <g style="fill:rgb(255,253,169); fill-opacity:1.0; stroke-linejoin: miter"> <path d="M215.80418,468.7106L215.91295,483.59872L216.0626,483.61038L216.36488,483.6082L216.25618,468.72165L215.8043,468.7106"/> </g> <g style="fill:rgb(231,255,254); fill-opacity:1.0; stroke-linejoin: miter"> <path d="M215.35262,451.54086L215.35262,460.56314L215.35582,460.56314L217.00221,460.56314L217.00221,451.54086L215.35262,451.54086"/> </g> <g style="fill:rgb(114,170,168); fill-opacity:1.0; stroke-linejoin: miter"> <path d="M212.23296,461.4778L212.23235,465.14053L220.00392,465.14932L220.01564,461.48856L212.23302,461.4778"/> </g> <g style="fill:rgb(114,170,168); fill-opacity:1.0; stroke-linejoin: miter"> <path d="M214.57881,465.3359L214.57582,467.99472L217.88399,467.99997L217.88924,467.999L217.89223,465.34012L214.5829,465.3359"/> </g> <g style="fill:rgb(0,0,0); fill-opacity:1.0; stroke-linejoin: miter"> <path d="M221.86479,469.00266L221.85963,488.64304L214.12773,488.64304L210.93214,488.61868L210.93214,469.01364L221.84102,469.00266 M210.24077,467.61996Q209.60957,467.6804,209.54945,468.3074L209.54942,489.31284Q209.5767,489.94998,210.25206,490.02567L222.58714,490.025Q223.17665,489.96304,223.24748,489.33365L223.24748,468.32828Q223.24556,468.09848,223.14018,467.9412Q222.9228,467.6296,222.56953,467.6201L210.26201,467.61996"/> </g> <g style="fill:rgb(0,0,0); fill-opacity:1.0; stroke-linejoin: miter"> <path d="M219.64592,461.63498L219.64592,464.68594L216.12398,464.69168L212.61455,464.68875L212.61455,461.63785L219.63872,461.63498 M212.123,460.65195Q211.70448,460.69034,211.63441,461.0892L211.63145,465.18063Q211.67165,465.63425,212.12785,465.6747L220.15895,465.67422Q220.58363,465.62387,220.62895,465.1857L220.6281,461.11392Q220.60057,460.83707,220.36485,460.7076Q220.27354,460.65732,220.14638,460.65207L212.13292,460.65195"/> </g> <g style="fill:rgb(0,0,0); fill-opacity:1.0; stroke-linejoin: miter"> <path d="M217.3662,465.87894L217.36534,467.5521L215.2481,467.5521L214.89427,467.54916L214.89867,465.87894L217.36433,465.87894 M214.36876,464.82785Q213.94533,464.8588,213.84978,465.2701L213.84322,468.07236Q213.88857,468.56107,214.36894,468.60318L217.96043,468.59872Q218.38802,468.50797,218.41722,468.07462L218.4164,465.32376Q218.40172,465.09726,218.22252,464.94504Q218.09016,464.83615,217.90358,464.82797L214.37462,464.82785"/> </g> <g style="fill:rgb(0,0,0); fill-opacity:1.0; stroke-linejoin: miter"> <path d="M216.51814,452.06393L216.51637,460.335L215.73973,460.33267L215.73973,452.07504L216.51399,452.06393 M215.24818,451.0809Q214.81218,451.1202,214.7571,451.5516L214.75667,460.8088Q214.78142,461.267,215.24852,461.31802L217.11958,461.3057Q217.47932,461.20163,217.5012,460.81845L217.5012,451.5811Q217.50304,451.5256,217.48729,451.45584Q217.3958,451.15048,217.09306,451.08798L215.2487,451.0809"/> </g> <g style="fill:rgb(0,0,0); fill-opacity:1.0; stroke-linejoin: miter"> <path d="M216.17574,469.1014L216.17574,483.5013Q216.17705,483.54556,216.17305,483.53568L215.90984,483.5308L215.90984,469.13083L215.90996,469.1014L216.17366,469.1014 M215.58836,468.45847Q215.30592,468.48404,215.26744,468.76096L215.26689,483.8342Q215.27898,484.14743,215.59007,484.17862L216.5786,484.16824Q216.80272,484.09732,216.81868,483.85672L216.81761,468.75375Q216.78831,468.53177,216.5725,468.46732L215.59016,468.45847"/> </g> <g style="fill:rgb(231,255,254); fill-opacity:1.0; stroke-linejoin: miter"> <path d="M221.86479,469.00266L221.85963,488.64304L214.12773,488.64304L210.93214,488.61868L210.93214,469.01364L215.26741,469.0093L215.26741,469.0093L215.26689,483.8342Q215.27898,484.14743,215.59007,484.17862L216.5786,484.16824Q216.80272,484.09732,216.81868,483.85672L216.81764,469.00772L216.81764,469.00772L221.84102,469.00266 Z"/> </g> </g> </g> </svg>